<?xml version="1.0" encoding="utf-8"?>
<!-- Generator: Adobe Illustrator 24.1.0, SVG Export Plug-In . SVG Version: 6.00 Build 0)  -->
<svg version="1.1" id="Layer_1" xmlns="http://www.w3.org/2000/svg" xmlns:xlink="http://www.w3.org/1999/xlink" x="0px" y="0px"
	 viewBox="0 0 413.81 327.41" style="enable-background:new 0 0 413.81 327.41;" xml:space="preserve">
<style type="text/css">
	.st0{fill:#FFFFFF;}
</style>
<g>
	<path class="st0" d="M234.21,168.68c0.21-1.31,0.31-2.14,0.47-2.95c3.89-19.33,7.77-38.66,11.72-57.97
		c0.32-1.57-0.11-2.36-1.47-3.07c-8.35-4.33-16.65-8.75-25.02-13.05c-0.78-0.4-2.04-0.42-2.87-0.09c-3.06,1.2-6.02,2.63-9.02,3.96
		c-0.96,0.43-1.93,0.84-3.23,1.41c0.1-1.88,0.16-3.35,0.26-4.81c0.69-9.32,1.37-18.64,2.09-27.96c0.11-1.36-0.26-2.26-1.46-3.05
		c-5.8-3.84-11.58-7.71-17.28-11.7c-1.56-1.09-2.6-1.08-4.02,0.21c-5.45,4.93-11,9.74-16.52,14.59
		c-8.27,7.28-16.54,14.57-24.84,21.81c-1.23,1.07-1.74,2.14-1.5,3.84c0.96,6.7,1.76,13.42,2.62,20.13
		c1.21,9.46,2.4,18.92,3.66,28.38c0.22,1.62-0.12,2.38-1.86,2.8c-5.14,1.22-10.21,2.71-15.34,4c-1.44,0.36-1.92,1.08-1.63,2.49
		c0.49,2.33,0.94,4.67,1.4,7.01c0.89,4.55,1.73,9.12,2.73,13.65c0.15,0.67,1.05,1.17,1.61,1.74c0.32-0.73,0.69-1.45,0.92-2.21
		c0.1-0.33-0.13-0.75-0.21-1.13c-1.15-5.75-2.26-11.51-3.47-17.24c-0.31-1.46,0.07-2.04,1.54-2.42c10.36-2.66,20.7-5.42,31.04-8.14
		c3.1-0.81,6.21-1.6,9.82-2.53c0,2.19-0.03,4.1,0,6.01c0.14,8.51,0.3,17.02,0.43,25.53c0.02,1.44,0.23,2.5,2.08,2.5
		c7.09,0.01,14.19,0.1,21.28,0.21c1.49,0.02,2.05-0.64,2.13-2.07c0.5-9.07,1.02-18.15,1.59-27.22c0.1-1.65-0.4-2.43-2.1-2.77
		c-7.58-1.55-15.12-3.25-22.69-4.81c-1.09-0.22-2.3-0.09-3.41,0.13c-2,0.39-3.96,0.98-6.09,1.52c-0.1-0.77-0.19-1.26-0.21-1.76
		c-0.24-4.83-0.4-9.66-0.73-14.49c-0.11-1.6,0.32-2.41,1.82-3.08c14.61-6.48,29.17-13.05,43.76-19.58c1.43-0.64,2.88-1.22,4.51-1.9
		c0,0.66,0.03,0.97,0,1.27c-0.77,7.11-1.56,14.22-2.33,21.32c-1.86,17.04-3.7,34.09-5.56,51.13c-0.26,2.41-0.02,2.74,2.36,2.75
		c18.76,0.12,37.53,0.23,56.29,0.34c0.58,0,1.22,0.06,1.71-0.16c0.38-0.17,0.79-0.76,0.78-1.15c-0.01-0.39-0.45-0.94-0.84-1.1
		c-0.5-0.21-1.14-0.13-1.72-0.13c-8.12-0.07-16.25-0.14-24.37-0.2C240.19,168.66,237.37,168.68,234.21,168.68z M215.3,74.28
		c0.07,0.09,0.15,0.18,0.22,0.28c2.99-1.44,5.92-3.01,8.97-4.3c12.17-5.14,24.7-6.86,37.57-3.19c18.18,5.18,29.74,20.19,31.92,39.41
		c1.92,16.93-2.84,32.29-11.85,46.44c-2.98,4.68-6.6,8.95-9.69,13.09c0.2-0.14,0.81-0.48,1.35-0.9
		c15.9-12.42,26.63-28.21,30.88-48.07c2.28-10.65,2.1-21.33-1.66-31.65c-6.77-18.59-22.64-29.48-42.45-29.47
		c-13.97,0.01-26.35,4.81-37.7,12.61C220.25,70.31,217.81,72.35,215.3,74.28z M96.28,48.22c0.12,0.03,0.23,0.06,0.35,0.09
		c0,0.68,0,1.36,0,2.03c-0.03,3.87-0.13,7.73-0.07,11.6c0.04,2.87,1.54,4.9,3.76,5.44c3.28,0.79,6.05-1.09,6.59-4.5
		c0.11-0.7,0.1-1.41,0.1-2.12c0-9.22,0.02-18.43-0.01-27.65c-0.01-3.39-1.44-5.55-3.93-6.14c-3.16-0.76-6.11,0.41-7.84,3.2
		c-1.36,2.19-2.62,4.44-3.92,6.66c-1.68,2.87-3.36,5.73-5.22,8.91c-0.55-0.88-0.93-1.45-1.28-2.03c-2.75-4.65-5.46-9.34-8.27-13.96
		c-1.62-2.66-4.61-3.63-7.79-2.74c-2.11,0.59-3.41,2.62-3.59,5.61c-0.04,0.64-0.05,1.29-0.05,1.93c0,8.51-0.01,17.01,0.01,25.52
		c0,1.03,0.01,2.07,0.16,3.08c0.4,2.57,2.21,4.23,4.66,4.38c2.67,0.17,4.65-1.15,5.32-3.78c0.31-1.23,0.33-2.54,0.34-3.82
		c0.04-3.89,0.01-7.78,0.01-12.09c2.02,3.29,3.84,6.28,5.68,9.27c2.76,4.48,6.73,4.51,9.48,0.08C92.61,54.2,94.44,51.21,96.28,48.22
		z M94.01,161.59c-1.88,5.6-9.52,7.17-13.59,3.07c-3.96-3.99-4.14-8.83-2.44-13.83c1.67-4.89,6.79-7.18,11.62-5.36
		c1.02,0.38,1.95,1.01,2.96,1.41c3.69,1.45,7.05-0.91,6.88-4.87c-0.1-2.38-1.63-3.89-3.49-5.01c-6.13-3.68-15.52-3.21-21.23,1.14
		c-7.56,5.77-9.52,13.68-7.95,22.59c1.38,7.77,5.87,13.32,13.54,15.64c13.2,3.99,25.14-4.94,24.22-19.73
		c-0.19-2.99-1.66-4.69-4.33-4.78c-4.57-0.17-9.15-0.18-13.72-0.01c-2.79,0.11-4.47,2.4-4.27,5.2c0.19,2.66,1.95,4.38,4.85,4.53
		C89.29,161.68,91.53,161.59,94.01,161.59z M82.79,106.42c0.33,0,1.03,0,1.74,0c3.09-0.01,6.19,0.08,9.28-0.06
		c3.37-0.15,5.18-2.43,4.73-5.69c-0.35-2.56-2.22-4.09-5.22-4.13c-3.66-0.05-7.32-0.01-11.43-0.01V91c1.11,0,1.8,0,2.49,0
		c3.55-0.01,7.09,0.05,10.64-0.04c3.28-0.09,4.95-1.99,4.8-5.24c-0.12-2.76-1.86-4.42-5.01-4.46c-6.06-0.08-12.12-0.07-18.18-0.01
		c-3.91,0.04-5.11,1.33-5.12,5.34c-0.02,9.15-0.01,18.31-0.01,27.46c0,1.22-0.04,2.45,0.04,3.67c0.2,3.02,1.35,4.23,4.36,4.27
		c6.57,0.08,13.15,0.09,19.72,0.01c3.05-0.04,4.77-1.98,4.73-4.95c-0.04-2.8-1.85-4.67-4.78-4.73c-3.74-0.08-7.48-0.03-11.22-0.04
		c-0.69,0-1.37-0.06-1.56-0.1V106.42z"/>
	<path class="st0" d="M234.05,168.26c3.16,0,5.98-0.02,8.8,0c8.12,0.06,16.25,0.13,24.37,0.2c0.58,0.01,1.21-0.08,1.72,0.13
		c0.39,0.16,0.83,0.72,0.84,1.1c0.01,0.39-0.4,0.97-0.78,1.15c-0.49,0.22-1.13,0.16-1.71,0.16c-18.76-0.11-37.53-0.22-56.29-0.34
		c-2.38-0.02-2.62-0.34-2.36-2.75c1.86-17.04,3.71-34.09,5.56-51.13c0.77-7.11,1.56-14.22,2.33-21.32c0.03-0.3,0-0.61,0-1.27
		c-1.64,0.69-3.09,1.27-4.51,1.9c-14.58,6.53-29.15,13.1-43.76,19.58c-1.5,0.67-1.94,1.48-1.82,3.08c0.34,4.82,0.49,9.66,0.73,14.49
		c0.02,0.5,0.12,0.99,0.21,1.76c2.13-0.54,4.09-1.13,6.09-1.52c1.11-0.22,2.32-0.35,3.41-0.13c7.57,1.56,15.12,3.26,22.69,4.81
		c1.7,0.35,2.2,1.12,2.1,2.77c-0.58,9.07-1.09,18.14-1.59,27.22c-0.08,1.43-0.64,2.09-2.13,2.07c-7.09-0.1-14.18-0.19-21.28-0.21
		c-1.86,0-2.06-1.06-2.08-2.5c-0.13-8.51-0.3-17.02-0.43-25.53c-0.03-1.91,0-3.82,0-6.01c-3.62,0.93-6.72,1.72-9.82,2.53
		c-10.35,2.72-20.68,5.48-31.04,8.14c-1.47,0.38-1.85,0.96-1.54,2.42c1.21,5.74,2.32,11.49,3.47,17.24c0.08,0.38,0.3,0.8,0.21,1.13
		c-0.22,0.76-0.6,1.48-0.92,2.21c-0.55-0.58-1.46-1.08-1.61-1.74c-1-4.53-1.83-9.1-2.73-13.65c-0.46-2.34-0.91-4.68-1.4-7.01
		c-0.29-1.41,0.19-2.13,1.63-2.49c5.12-1.29,10.2-2.78,15.34-4c1.74-0.41,2.08-1.18,1.86-2.8c-1.26-9.45-2.45-18.92-3.66-28.38
		c-0.86-6.71-1.66-13.43-2.62-20.13c-0.24-1.7,0.28-2.77,1.5-3.84c8.3-7.24,16.57-14.54,24.84-21.81
		c5.52-4.85,11.07-9.67,16.52-14.59c1.43-1.29,2.47-1.3,4.02-0.21c5.7,3.98,11.48,7.86,17.28,11.7c1.2,0.79,1.57,1.7,1.46,3.05
		c-0.72,9.32-1.41,18.64-2.09,27.96c-0.11,1.46-0.16,2.93-0.26,4.81c1.3-0.57,2.27-0.98,3.23-1.41c3-1.34,5.97-2.76,9.02-3.96
		c0.83-0.33,2.09-0.31,2.87,0.09c8.37,4.29,16.67,8.72,25.02,13.05c1.36,0.71,1.8,1.49,1.47,3.07
		c-3.95,19.31-7.83,38.64-11.72,57.97C234.36,166.12,234.26,166.95,234.05,168.26z M184.71,52.33c-1.25,1.07-2.07,1.76-2.87,2.46
		c-10.93,9.62-21.71,19.41-32.85,28.76c-3.83,3.21-6.2,6.26-4.31,11.3c0.02,0.06,0.01,0.13,0.02,0.19
		c1.8,14.19,3.62,28.37,5.37,42.57c0.18,1.49,0.68,1.84,2.11,1.44c3.53-0.99,7.09-1.94,10.66-2.76c1.53-0.35,1.88-1.08,1.79-2.55
		c-0.35-5.53-0.52-11.07-0.9-16.6c-0.12-1.72,0.53-2.54,2.03-3.19c5.44-2.36,10.81-4.87,16.24-7.23c1.31-0.57,1.77-1.3,1.8-2.74
		c0.26-14.95,0.6-29.9,0.9-44.85C184.75,57.09,184.71,55.04,184.71,52.33z"/>
	<path class="st0" d="M215.14,73.87c2.52-1.93,4.95-3.98,7.57-5.77c11.35-7.8,23.73-12.6,37.7-12.61
		c19.81-0.01,35.68,10.88,42.45,29.47c3.76,10.32,3.94,21,1.66,31.65c-4.25,19.86-14.98,35.65-30.88,48.07
		c-0.54,0.42-1.15,0.77-1.35,0.9c3.09-4.14,6.71-8.41,9.69-13.09c9.01-14.15,13.77-29.52,11.85-46.44
		c-2.18-19.22-13.74-34.23-31.92-39.41c-12.87-3.67-25.41-1.95-37.57,3.19c-3.05,1.29-5.98,2.86-8.97,4.3
		C215.28,74.05,215.21,73.96,215.14,73.87z"/>
	<path class="st0" d="M96.12,47.8c-1.84,2.99-3.67,5.99-5.53,8.97c-2.76,4.43-6.72,4.4-9.48-0.08c-1.84-2.98-3.66-5.98-5.68-9.27
		c0,4.31,0.03,8.2-0.01,12.09c-0.01,1.28-0.03,2.6-0.34,3.82c-0.66,2.63-2.64,3.95-5.32,3.78c-2.45-0.15-4.26-1.81-4.66-4.38
		c-0.16-1.01-0.16-2.06-0.16-3.08c-0.01-8.51-0.01-17.01-0.01-25.52c0-0.64,0.01-1.29,0.05-1.93c0.18-2.99,1.48-5.03,3.59-5.61
		c3.18-0.89,6.17,0.08,7.79,2.74c2.82,4.62,5.52,9.3,8.27,13.96c0.35,0.58,0.72,1.15,1.28,2.03c1.86-3.17,3.54-6.04,5.22-8.91
		c1.3-2.22,2.57-4.47,3.92-6.66c1.73-2.79,4.68-3.95,7.84-3.2c2.49,0.6,3.92,2.75,3.93,6.14c0.03,9.22,0.02,18.43,0.01,27.65
		c0,0.71,0.01,1.43-0.1,2.12c-0.54,3.41-3.32,5.29-6.59,4.5c-2.22-0.54-3.72-2.57-3.76-5.44c-0.05-3.86,0.04-7.73,0.07-11.6
		c0.01-0.68,0-1.36,0-2.03C96.35,47.86,96.24,47.83,96.12,47.8z"/>
	<path class="st0" d="M93.85,161.17c-2.48,0-4.72,0.09-6.95-0.02c-2.89-0.14-4.65-1.86-4.85-4.53c-0.2-2.8,1.48-5.09,4.27-5.2
		c4.57-0.18,9.15-0.16,13.72,0.01c2.67,0.1,4.15,1.79,4.33,4.78c0.91,14.79-11.02,23.73-24.22,19.73
		c-7.67-2.32-12.16-7.87-13.54-15.64c-1.58-8.91,0.38-16.82,7.95-22.59c5.7-4.35,15.1-4.82,21.23-1.14
		c1.87,1.12,3.39,2.64,3.49,5.01c0.17,3.95-3.19,6.32-6.88,4.87c-1.01-0.4-1.94-1.03-2.96-1.41c-4.83-1.82-9.95,0.47-11.62,5.36
		c-1.7,4.99-1.53,9.84,2.44,13.83C84.33,168.35,91.97,166.77,93.85,161.17z"/>
	<path class="st0" d="M82.01,106c0,2.04,0,3.81,0,5.75c0.8,0.04,1.48,0.09,2.17,0.1c3.74,0.02,7.48-0.04,11.22,0.04
		c2.93,0.06,4.74,1.92,4.78,4.73c0.04,2.97-1.68,4.91-4.73,4.95c-6.57,0.08-13.15,0.07-19.72-0.01c-3.01-0.04-4.15-1.25-4.36-4.27
		c-0.08-1.22-0.04-2.45-0.04-3.67c0-9.15-0.01-18.31,0.01-27.46c0.01-4.01,1.21-5.3,5.12-5.34c6.06-0.06,12.12-0.07,18.18,0.01
		c3.16,0.04,4.89,1.7,5.01,4.46c0.14,3.25-1.52,5.15-4.8,5.24c-3.54,0.1-7.09,0.04-10.64,0.05c-0.69,0-1.38,0-2.18,0
		c0,1.92,0,3.63,0,5.54c3.8,0,7.46-0.04,11.12,0.01c3.01,0.04,4.88,1.57,5.22,4.13c0.44,3.26-1.37,5.54-4.73,5.69
		c-3.09,0.14-6.19,0.05-9.28,0.06C83.66,106,82.96,106,82.01,106z"/>
	<path class="st0" d="M108.98,256.52c-3.65,0-6.88,0-10.12,0c-0.07-0.13-0.15-0.26-0.22-0.39c0.41-0.33,0.84-0.65,1.24-0.99
		c0.55-0.48,1.58-1,1.55-1.46c-0.19-3.8-0.57-7.59-0.89-11.38c-0.18-0.01-0.36-0.01-0.53-0.02c-1.92,4.52-3.84,9.04-5.76,13.55
		c-0.22,0.04-0.44,0.09-0.66,0.13c-2.35-4.61-4.71-9.22-7.06-13.83c-0.19,0.03-0.38,0.06-0.57,0.08c-0.15,3.36-0.46,6.72-0.35,10.06
		c0.03,0.95,1.24,1.91,2.01,2.77c0.36,0.41,0.97,0.61,1.46,0.9c-0.05,0.16-0.1,0.32-0.15,0.48c-2.81,0-5.63,0-8.92,0
		c0.61-0.61,1.05-0.95,1.35-1.38c0.85-1.21,2.15-2.39,2.38-3.72c0.62-3.74,0.88-7.54,1.05-11.34c0.03-0.73-0.95-1.56-1.58-2.25
		c-0.3-0.33-0.84-0.44-1.27-0.66c0.05-0.17,0.1-0.34,0.15-0.51c2.44,0,4.89,0,7.21,0c0.58,4.91,3.91,8.61,5.88,13.06
		c1.58-4.32,4.81-7.99,4.61-13.11c2.18,0,4.66,0,7.46,0c-0.37,0.53-0.52,1.01-0.75,1.05c-1.92,0.37-2.23,1.63-2.03,3.32
		c0.42,3.58,0.78,7.17,1.16,10.76c0.19,1.74,0.54,3.34,2.61,3.81C108.44,255.5,108.56,255.91,108.98,256.52z M103.19,255.01
		c0.14,0.1,0.28,0.2,0.42,0.3c0.1-0.43,0.32-0.87,0.27-1.29c-0.59-5.44-1.21-10.87-1.87-16.68c-0.27,0.61-0.6,1.02-0.59,1.41
		c0.02,1.09,0.17,2.18,0.29,3.27C102.19,246.36,102.69,250.69,103.19,255.01z M86.1,237.45c-0.07,0.15-0.13,0.29-0.2,0.44
		c2.55,5.06,5.1,10.12,7.65,15.19c0.18-0.08,0.35-0.16,0.53-0.24c-0.25-0.6-0.47-1.21-0.75-1.79c-2.06-4.34-4.11-8.69-6.22-13.01
		C86.97,237.74,86.45,237.64,86.1,237.45z"/>
	<path class="st0" d="M258.92,257.15c-2.13,0.23-4.26-0.04-5.72-1.51c-1.87-1.88-3.53-4.06-4.89-6.35c-1.69-2.85-1.98-3.2-5.58-2.64
		c0,1.8,0.14,3.66-0.04,5.49c-0.23,2.35,1.77,2.88,3.27,3.87c-0.1,0.14-0.19,0.28-0.29,0.42c-3.21,0-6.43,0-10.01,0
		c0.39-0.48,0.6-1,0.94-1.1c1.62-0.49,1.96-1.67,1.95-3.15c-0.02-3.74-0.03-7.48,0.02-11.22c0.02-1.65-0.34-2.93-2.15-3.38
		c-0.23-0.06-0.38-0.43-0.66-0.76c0.32-0.19,0.51-0.4,0.71-0.4c3.41-0.12,6.83-0.37,10.23-0.26c1.67,0.05,3.54,0.44,4.95,1.29
		c3.17,1.91,3.04,5.93-0.05,7.96c-0.36,0.24-0.74,0.44-1.2,0.71C253.24,249.8,256.01,253.39,258.92,257.15z M242.73,244.97
		c1.29,0,2.32,0.06,3.33-0.01c2.94-0.22,4.37-2.73,3.11-5.4c-0.72-1.51-2.88-2.48-4.6-2.03c-1.8,0.46-1.87,1.87-1.84,3.35
		C242.75,242.16,242.73,243.43,242.73,244.97z M240.78,237.86c-0.16-0.08-0.32-0.16-0.48-0.24c-0.14,0.29-0.4,0.58-0.4,0.87
		c-0.04,5.38-0.05,10.77-0.02,16.15c0,0.27,0.48,0.53,0.91,0.97C240.78,249.37,240.78,243.61,240.78,237.86z M249.98,248.62
		c-0.15,0.14-0.31,0.27-0.46,0.41c1.07,1.59,2.13,3.19,3.2,4.78c0.14-0.09,0.29-0.18,0.43-0.27c-0.58-0.97-1.14-1.94-1.74-2.89
		C250.96,249.95,250.46,249.29,249.98,248.62z"/>
	<path class="st0" d="M271.34,297.03c2.82,3.64,5.56,7.2,8.49,10.99c-1.76,0.21-3.5-0.03-5.1-1.01c-2.57-1.56-4.18-3.94-5.42-6.61
		c-1.43-3.09-1.93-3.36-5.62-2.96c0,1.87,0.24,3.82-0.06,5.69c-0.4,2.52,2.32,2.58,3.4,4.51c-3.46,0-6.46,0.01-9.45-0.02
		c-0.24,0-0.7-0.34-0.68-0.47c0.05-0.33,0.26-0.84,0.5-0.89c2.23-0.52,2.17-2.25,2.17-3.96c0.01-3.35,0-6.7,0.01-10.04
		c0-1.69-0.11-3.27-2.21-3.73c-0.24-0.05-0.38-0.55-0.74-1.13c0.81-0.06,1.34-0.13,1.88-0.15c2.38-0.09,4.76-0.29,7.13-0.21
		c2.03,0.07,4.11,0.25,6.05,0.81c1.91,0.55,3.03,2.08,3.17,4.18c0.14,2.13-0.89,3.54-2.69,4.51
		C271.89,296.68,271.64,296.85,271.34,297.03z M263.67,292.72c0,3.61,0.08,3.68,3.67,3.15c0.19-0.03,0.38-0.05,0.57-0.09
		c1.86-0.44,2.89-2.11,2.56-4.14c-0.34-2.04-2.17-3.42-4.35-3.27c-1.85,0.13-2.41,0.91-2.44,3.39
		C263.67,292.08,263.67,292.4,263.67,292.72z M261.42,288.79c-0.15,0-0.3,0-0.45-0.01c0,5.79,0,11.58,0,17.37
		c0.15,0,0.3,0.01,0.45,0.01C261.42,300.37,261.42,294.58,261.42,288.79z M273.41,304.47c0.17-0.11,0.34-0.22,0.51-0.33
		c-1.04-1.64-2.09-3.28-3.13-4.92c-0.17,0.11-0.34,0.21-0.5,0.32C271.32,301.19,272.37,302.83,273.41,304.47z"/>
	<path class="st0" d="M50,256.53c0.41-0.6,0.53-1,0.74-1.06c2.18-0.59,2.36-2.25,2.34-4.1c-0.04-2.83-0.01-5.67-0.01-8.5
		c0-3.6,0-3.6-2.98-6.03c0.86-0.11,1.48-0.24,2.12-0.25c3.66-0.08,7.36-0.46,10.98-0.11c4.93,0.47,8.21,4.47,8.45,9.52
		c0.24,4.94-2.85,9.12-7.61,10.31c-0.37,0.09-0.76,0.22-1.14,0.22C58.74,256.53,54.58,256.53,50,256.53z M57.23,246
		c-0.01,0-0.02,0-0.03,0c0,1.8-0.02,3.6,0,5.4c0.04,3.41,1.78,4.63,4.99,3.31c1.08-0.44,2.16-1.2,2.91-2.09
		c2.71-3.21,2.73-9.09,0.19-12.43c-1.33-1.76-3.1-2.66-5.3-2.64c-1.92,0.02-2.71,0.77-2.75,2.68C57.2,242.15,57.23,244.07,57.23,246
		z M54.45,254.92c0.16,0.01,0.32,0.02,0.48,0.02c0-5.7,0-11.4,0-17.11c-0.16,0-0.32,0-0.48,0
		C54.45,243.53,54.45,249.23,54.45,254.92z M68.23,250.8c1.31-2.72,1.5-5.44,0-8.21C68.23,245.29,68.23,248,68.23,250.8z"/>
	<path class="st0" d="M37.58,307.05c0.32-0.3,0.6-0.74,0.98-0.86c1.41-0.45,1.86-1.45,1.86-2.81c0-3.99,0.01-7.98,0.02-11.97
		c0-1.35-0.43-2.38-1.86-2.79c-0.31-0.09-0.56-0.4-1.21-0.88c1.06-0.12,1.7-0.24,2.34-0.27c3.28-0.13,6.57-0.48,9.83-0.29
		c7.94,0.44,12.22,9.1,7.94,15.82c-1.92,3.02-4.9,4.4-8.29,4.61c-3.76,0.23-7.55,0.05-11.33,0.05
		C37.76,307.46,37.67,307.25,37.58,307.05z M44.64,297.11c0,0-0.01,0-0.01,0c0,1.74-0.02,3.47,0,5.21c0.03,3.32,1.45,4.39,4.67,3.49
		c0.66-0.19,1.32-0.53,1.87-0.95c3.27-2.49,3.79-6,3.28-9.72c-0.53-3.84-3.16-6.42-6.44-6.69c-2.31-0.19-3.3,0.61-3.36,2.87
		C44.6,293.25,44.64,295.18,44.64,297.11z M41.99,305.72c0.16,0,0.31,0,0.47,0c0-5.65,0-11.3,0-16.95c-0.16,0-0.31,0-0.47,0
		C41.99,294.42,41.99,300.07,41.99,305.72z M55.66,301.28c1.52-2.23,1.51-6.07,0-7.96C55.66,295.86,55.66,298.58,55.66,301.28z"/>
	<path class="st0" d="M87.37,301.14c-0.55,1.95-1.05,3.91-1.71,5.82c-0.12,0.35-0.9,0.65-1.38,0.66
		c-5.03,0.05-10.05,0.04-15.08,0.01c-0.39,0-0.77-0.28-1.16-0.42c0.28-0.36,0.49-0.92,0.84-1.04c1.44-0.48,1.78-1.53,1.78-2.86
		c0.01-3.87,0.03-7.73,0.04-11.6c0-1.44-0.27-2.69-1.98-3.1c-0.33-0.08-0.54-0.62-1.18-1.4c2.32,0,4.04,0,5.75,0
		c3.41,0,6.83,0.03,10.24-0.02c1.02-0.01,1.56,0.29,1.62,1.38c0.08,1.53,0.25,3.05,0.39,4.57c-0.17,0.1-0.33,0.2-0.5,0.29
		c-0.37-0.44-0.88-0.82-1.08-1.33c-1.51-3.66-4.17-3.79-7.53-3.27c-0.61,0.09-1.41,1.17-1.51,1.89c-0.23,1.56-0.07,3.18-0.07,5.15
		c1.41-0.19,2.8-0.05,3.83-0.59c1-0.52,1.63-1.74,2.76-3.03c0,3.05,0,5.64,0,8.23c-0.13,0.07-0.25,0.14-0.38,0.22
		c-0.68-1.01-1.15-2.37-2.09-2.95c-1.05-0.64-2.53-0.56-4.06-0.84c0,2.73-0.12,5.1,0.09,7.44c0.05,0.59,1.09,1.41,1.79,1.56
		c3.14,0.65,5.63-0.63,7.7-2.96c0.7-0.79,1.51-1.49,2.27-2.23C86.98,300.85,87.17,300.99,87.37,301.14z M71.98,306.66
		c0.55-0.61,0.92-0.83,0.93-1.06c0.04-5.47,0.05-10.94,0.02-16.42c0-0.25-0.46-0.51-0.95-1.01
		C71.98,294.47,71.98,300.24,71.98,306.66z"/>
	<path class="st0" d="M139.49,241.13c0,3.73-0.07,6.94,0.03,10.14c0.06,1.87,0.89,3.33,2.83,3.96c0.4,0.13,0.73,0.5,0.93,1.2
		c-2.68,0-5.36,0-8.43,0c0.43-0.54,0.63-1,0.99-1.22c1.59-1.01,2.14-2.49,2.15-4.28c0.01-3.42-0.04-6.83,0.06-10.25
		c0.04-1.45-0.91-2.01-1.82-2.71c-0.45-0.34-0.89-0.7-1.33-1.05c0.06-0.18,0.12-0.35,0.18-0.53c1.9,0,3.82-0.17,5.69,0.09
		c0.67,0.09,1.2,1.21,1.79,1.85c3.7,3.98,7.41,7.95,11.46,12.3c0-3.92,0.13-7.24-0.1-10.54c-0.06-0.8-1.29-1.54-2.05-2.24
		c-0.39-0.36-0.92-0.56-1.39-0.83c0.06-0.16,0.11-0.32,0.17-0.48c2.42,0,4.85,0,7.4,0c-0.09,0.38-0.08,0.78-0.2,0.83
		c-2.27,0.9-2.31,2.82-2.3,4.81c0.02,4.32,0,8.64-0.02,12.96c0,0.61-0.07,1.22-0.11,1.83c-0.2,0.12-0.4,0.24-0.6,0.35
		C149.82,252.05,144.83,246.77,139.49,241.13z M138.92,237.44c-0.17,0.16-0.34,0.33-0.51,0.49c5.12,5.46,10.24,10.92,15.35,16.38
		c0.17-0.16,0.34-0.32,0.5-0.48C149.19,248.32,144.08,242.85,138.92,237.44z"/>
	<path class="st0" d="M172.32,287.21c1.66,0,3.36-0.2,4.97,0.08c0.83,0.15,1.59,1.1,2.25,1.8c3.75,4.02,7.45,8.09,11.51,12.51
		c0-3.95,0.14-7.32-0.1-10.67c-0.06-0.79-1.33-1.52-2.1-2.21c-0.38-0.35-0.89-0.56-1.34-0.84c0.06-0.16,0.12-0.33,0.18-0.49
		c2.44,0,4.87,0,7.5,0c-0.18,0.46-0.23,1-0.44,1.07c-2.16,0.73-2.15,2.54-2.17,4.29c-0.04,4.38-0.01,8.76-0.02,13.14
		c0,0.67-0.07,1.34-0.1,2.01c-0.2,0.11-0.4,0.22-0.6,0.33c-4.98-5.26-9.97-10.53-15.15-16.01c0,3.93-0.19,7.5,0.12,11.03
		c0.09,1.01,1.63,1.89,2.52,2.83c0.32,0.34,0.66,0.65,0.98,0.98c-0.41,0.2-0.82,0.56-1.23,0.57c-2.24,0.06-4.48,0.03-7.21,0.03
		c0.5-0.77,0.68-1.33,1.06-1.56c1.49-0.92,2.03-2.3,2.06-3.92c0.05-3.61,0.17-7.22-0.02-10.82c-0.04-0.86-1.12-1.69-1.78-2.49
		c-0.34-0.41-0.81-0.73-1.22-1.09C172.1,287.58,172.21,287.39,172.32,287.21z M176.19,288.51c-0.18,0.17-0.36,0.34-0.54,0.51
		c5.08,5.43,10.17,10.85,15.25,16.28c0.18-0.17,0.35-0.33,0.53-0.5C186.34,299.38,181.26,293.94,176.19,288.51z"/>
	<path class="st0" d="M237.17,308.04c-5.8-0.04-10.65-4.91-10.56-10.59c0.09-6.04,4.87-10.72,10.9-10.66
		c5.78,0.05,10.49,4.89,10.43,10.69C247.87,303.41,243.11,308.08,237.17,308.04z M244.01,297.25c-0.69-2.2-1.06-4.48-2.09-6.4
		c-1.94-3.61-6.82-3.64-9.13-0.27c-2.3,3.36-2.35,9.87-0.11,13.27c2.38,3.6,7.35,3.54,9.33-0.28
		C242.99,301.69,243.33,299.48,244.01,297.25z M244.63,301.59c1.5-2.09,1.5-6.28,0-8.26C244.63,296.01,244.63,298.92,244.63,301.59z
		 M228.93,293.4c-1.2,2.8-1.23,5.23,0,7.94C228.93,298.63,228.93,296.19,228.93,293.4z"/>
	<path class="st0" d="M343.36,286.78c5.79-0.02,10.57,4.72,10.61,10.52c0.04,5.9-4.75,10.75-10.6,10.75
		c-5.85-0.01-10.65-4.67-10.73-10.43C332.54,291.67,337.36,286.8,343.36,286.78z M349.97,297.47c-0.61-2.22-1-4.31-1.78-6.24
		c-0.81-2.01-2.56-3.01-4.75-3.06c-2.19-0.05-3.9,0.9-4.89,2.86c-2.11,4.18-2.19,8.46,0.04,12.58c2.08,3.85,7.34,3.89,9.4,0.04
		C348.99,301.78,349.32,299.56,349.97,297.47z M350.64,301.59c1.46-2.07,1.45-6.64,0-8.13
		C350.64,296.13,350.64,298.96,350.64,301.59z M334.95,293.47c-1.22,2.67-1.23,5.08,0,7.84
		C334.95,298.54,334.95,296.13,334.95,293.47z"/>
	<path class="st0" d="M152.56,286.78c5.9-0.02,10.67,4.77,10.64,10.69c-0.03,5.81-4.76,10.54-10.57,10.57
		c-5.88,0.04-10.84-4.83-10.77-10.59C141.92,291.5,146.64,286.8,152.56,286.78z M159.19,297.52c-0.58-2.2-0.93-4.23-1.67-6.11
		c-0.82-2.06-2.51-3.19-4.82-3.23c-2.38-0.04-4.13,1.07-5.09,3.16c-1.85,4.02-1.92,8.14,0.13,12.1c2.06,3.99,7.36,4.13,9.49,0.19
		C158.23,301.78,158.56,299.56,159.19,297.52z M159.87,292.71c0,3.32,0,6.18,0,9.54C161.2,298.89,161.27,296.03,159.87,292.71z
		 M144.19,293.21c-1.19,2.82-1.19,5.32,0,7.85C144.19,298.55,144.19,296.05,144.19,293.21z"/>
	<path class="st0" d="M352,257.12c-6-0.05-10.74-4.83-10.64-10.72c0.1-5.85,4.84-10.54,10.67-10.56
		c5.86-0.01,10.69,4.87,10.63,10.77C362.6,252.43,357.8,257.17,352,257.12z M358.81,246.51c-0.85-2.5-1.26-4.99-2.47-6.99
		c-1.91-3.15-6.29-3.1-8.54-0.22c-2.65,3.39-2.69,10.62-0.07,14.05c2.26,2.96,6.53,3.12,8.51-0.01
		C357.48,251.36,357.95,248.89,358.81,246.51z M343.75,242.73c-1.49,2.38-1.42,5.7,0,7.44
		C343.75,247.81,343.75,245.29,343.75,242.73z M359.38,251.09c1.27-3.17,1.3-5.95,0-9.04C359.38,245.14,359.38,247.92,359.38,251.09
		z"/>
	<path class="st0" d="M371.61,236.4c1.9,0,3.81-0.17,5.67,0.09c0.67,0.09,1.2,1.21,1.8,1.86c3.7,3.98,7.4,7.95,11.38,12.23
		c0-3.93,0.11-7.32-0.09-10.69c-0.04-0.7-1.13-1.39-1.84-1.97c-0.44-0.36-1.07-0.49-1.61-0.73c0.04-0.19,0.08-0.37,0.12-0.56
		c2.49,0,4.98,0,7.54,0c-0.06,0.3-0.05,0.59-0.15,0.63c-2.3,1.05-2.41,3.05-2.39,5.19c0.05,4.12,0.01,8.25,0.01,12.37
		c0,0.69,0,1.37,0,2.06c-0.22,0.14-0.43,0.28-0.65,0.42c-1.64-1.68-3.29-3.35-4.91-5.04c-1.74-1.81-3.45-3.65-5.17-5.48
		c-1.66-1.77-3.32-3.54-4.98-5.32c-0.22,0.05-0.44,0.11-0.65,0.16c0.22,3.73,0.31,7.48,0.74,11.19c0.1,0.83,1.35,1.55,2.13,2.26
		c0.4,0.37,0.92,0.61,1.39,0.91c-0.06,0.16-0.11,0.31-0.17,0.47c-2.7,0-5.41,0-8.47,0c0.37-0.5,0.56-0.97,0.91-1.18
		c1.68-1.01,2.29-2.56,2.32-4.4c0.05-3.41,0.13-6.84-0.03-10.24c-0.04-0.83-0.9-1.69-1.53-2.41c-0.41-0.48-1.08-0.75-1.63-1.11
		C371.46,236.87,371.54,236.64,371.61,236.4z M390.2,254.24c0.18-0.16,0.36-0.31,0.54-0.47c-5.11-5.44-10.09-10.99-15.33-16.31
		c-0.16,0.16-0.33,0.31-0.49,0.47C380.01,243.36,385.1,248.8,390.2,254.24z"/>
	<path class="st0" d="M216.03,293.29c-0.37-0.58-0.82-1.13-1.1-1.75c-1.09-2.4-2.78-3.61-5.11-3.15c-0.91,0.18-2.18,1.02-2.35,1.77
		c-0.19,0.86,0.42,2.21,1.12,2.88c0.89,0.85,2.22,1.24,3.37,1.8c0.92,0.45,1.89,0.81,2.8,1.29c2.73,1.46,3.91,3.55,3.57,6.24
		c-0.31,2.46-2.5,4.7-5.22,5.32c-2.89,0.66-5.62,0.06-8.28-1.06c-0.32-0.14-0.76-0.45-0.79-0.73c-0.21-1.81-0.33-3.63-0.47-5.44
		c0.21-0.07,0.41-0.15,0.62-0.22c0.3,0.38,0.62,0.74,0.88,1.14c0.77,1.17,1.38,2.48,2.29,3.52c1.36,1.56,3.61,1.9,5.49,1.07
		c2.25-0.99,2.79-3.78,0.91-5.36c-1.06-0.89-2.39-1.47-3.63-2.14c-1.07-0.58-2.24-1-3.27-1.64c-1.86-1.16-3.07-2.78-2.75-5.12
		c0.32-2.31,2.15-4.41,4.57-4.6c2.19-0.17,4.44,0.31,6.66,0.57c0.24,0.03,0.53,0.51,0.6,0.83c0.3,1.43,0.53,2.88,0.78,4.32
		C216.49,292.99,216.26,293.14,216.03,293.29z M205.98,294.11c-0.08,0.12-0.17,0.23-0.25,0.35c1.4,0.81,2.76,1.7,4.21,2.41
		c2.41,1.18,5.08,1.98,6.29,4.79c-0.06-1.76-0.97-2.91-2.43-3.65C211.2,296.7,208.59,295.41,205.98,294.11z"/>
	<path class="st0" d="M375.22,293.29c-0.34-0.53-0.75-1.03-1.01-1.6c-1.15-2.52-2.89-3.78-5.24-3.29c-0.91,0.19-2.12,1.03-2.34,1.81
		c-0.22,0.79,0.37,2.12,1.04,2.77c0.83,0.82,2.1,1.2,3.2,1.73c0.98,0.48,2.01,0.86,2.98,1.37c2.86,1.49,3.97,3.52,3.56,6.41
		c-0.35,2.48-2.37,4.59-5.09,5.19c-2.88,0.64-5.64,0.08-8.3-1.04c-0.32-0.13-0.74-0.47-0.78-0.76c-0.21-1.81-0.33-3.63-0.48-5.45
		c0.2-0.07,0.4-0.14,0.59-0.21c0.27,0.33,0.58,0.65,0.8,1.01c0.71,1.14,1.26,2.41,2.12,3.43c1.43,1.7,3.41,2.22,5.42,1.35
		c0.92-0.4,1.97-1.49,2.12-2.4c0.16-1-0.4-2.4-1.12-3.19c-0.82-0.9-2.16-1.34-3.3-1.94c-1.03-0.54-2.12-0.94-3.13-1.52
		c-2.26-1.29-3.25-3.18-2.91-5.41c0.35-2.28,2.17-4.34,4.65-4.51c2.14-0.15,4.32,0.35,6.48,0.61c0.23,0.03,0.54,0.39,0.59,0.65
		c0.3,1.55,0.54,3.12,0.8,4.68C375.65,293.09,375.44,293.19,375.22,293.29z M365.29,293.65c-0.15,0.21-0.29,0.42-0.44,0.62
		c1.22,0.78,2.4,1.66,3.68,2.33c2.42,1.28,5.25,1.93,6.79,4.51C373.65,296.31,367.98,297.04,365.29,293.65z"/>
	<path class="st0" d="M197.2,242.44c-0.34-0.65-0.73-1.28-1.03-1.96c-0.97-2.2-3.17-3.66-5.19-3.04c-0.95,0.29-2.09,1.25-2.32,2.13
		c-0.2,0.74,0.55,2.16,1.3,2.64c1.72,1.1,3.69,1.79,5.54,2.69c2.11,1.02,3.83,2.4,4.13,4.94c0.42,3.62-2.18,6.82-6.3,7.04
		c-2.37,0.13-4.79-0.66-7.17-1.12c-0.33-0.06-0.76-0.58-0.8-0.92c-0.22-1.76-0.33-3.54-0.49-5.31c0.18-0.08,0.35-0.16,0.53-0.24
		c0.31,0.36,0.66,0.7,0.91,1.09c0.72,1.13,1.28,2.4,2.13,3.41c1.45,1.71,3.76,2.16,5.62,1.33c2.43-1.09,2.92-4.04,0.8-5.63
		c-1.32-0.99-2.92-1.6-4.4-2.38c-0.85-0.45-1.77-0.8-2.56-1.33c-1.88-1.25-2.82-3.01-2.37-5.29c0.46-2.32,1.96-3.99,4.23-4.21
		c2.25-0.21,4.57,0.28,6.86,0.52c0.23,0.02,0.56,0.38,0.61,0.64c0.3,1.55,0.54,3.11,0.79,4.67
		C197.75,242.22,197.48,242.33,197.2,242.44z M187.09,243.01c2.26,3.7,7.88,3.03,10.2,7.01c-0.21-1.88-1.58-2.67-3-3.39
		C191.86,245.41,189.43,244.19,187.09,243.01z"/>
	<path class="st0" d="M42.34,256.5c-3.61,0-6.82,0-10.04,0c-0.06-0.16-0.12-0.32-0.18-0.47c0.45-0.23,0.88-0.56,1.36-0.69
		c1.18-0.32,1.66-0.93,1.1-2.11c-0.05-0.12-0.08-0.25-0.14-0.36c-0.58-1.12-0.98-3-1.8-3.21c-1.94-0.49-4.14-0.49-6.09-0.04
		c-0.76,0.17-1.36,2.04-1.58,3.21c-0.11,0.61,0.68,1.5,1.25,2.09c0.47,0.47,1.21,0.67,1.83,0.99c-0.05,0.17-0.09,0.34-0.14,0.5
		c-2.67,0-5.34,0-8.28,0c0.28-0.45,0.45-0.8,0.69-1.11c1.24-1.59,2.8-3.01,3.68-4.77c2.07-4.14,3.8-8.45,5.71-12.66
		c0.3-0.65,0.81-1.21,1.23-1.81c0.45,0.64,1.01,1.23,1.33,1.93c2.29,4.96,4.47,9.97,6.83,14.9c0.46,0.95,1.53,1.61,2.3,2.42
		C41.68,255.58,41.89,255.91,42.34,256.5z M26.78,247.87c1.97,0,3.57,0,5.45,0c-0.91-2.06-1.71-3.89-2.73-6.18
		C28.5,243.96,27.7,245.78,26.78,247.87z M30.81,239.66c-0.17,0.07-0.33,0.14-0.5,0.2c0.14,0.46,0.25,0.94,0.43,1.39
		c1.83,4.43,3.66,8.86,5.55,13.26c0.15,0.34,0.77,0.49,1.65,1C35.39,249.85,33.1,244.76,30.81,239.66z"/>
	<path class="st0" d="M278.29,255.99c0.32-0.2,0.62-0.55,0.95-0.59c1.91-0.24,2.01-1.3,1.29-2.73c-0.54-1.08-0.97-2.86-1.74-3.04
		c-1.96-0.45-4.15-0.47-6.1-0.02c-0.74,0.17-1.31,2.07-1.5,3.26c-0.1,0.61,0.71,1.47,1.27,2.06c0.45,0.47,1.16,0.69,1.75,1.02
		c-0.06,0.16-0.12,0.33-0.18,0.49c-2.68,0-5.36,0-8.25,0c0.21-0.44,0.28-0.92,0.52-1.03c2.41-1.1,3.27-3.36,4.24-5.53
		c1.87-4.17,3.7-8.36,5.57-12.52c0.22-0.48,0.65-0.87,0.99-1.3c0.38,0.45,0.89,0.85,1.12,1.37c2.29,5.04,4.44,10.14,6.84,15.12
		c0.67,1.39,2.02,2.44,3.23,3.84c-3.32,0-6.57,0-9.82,0C278.43,256.26,278.36,256.13,278.29,255.99z M272.98,247.87
		c1.94,0,3.54,0,5.41,0c-0.91-2.1-1.72-3.96-2.69-6.19C274.73,243.9,273.9,245.78,272.98,247.87z M283.66,255.24
		c0.07-0.1,0.14-0.2,0.21-0.29c-2.27-5.05-4.55-10.1-6.82-15.15c-0.18,0.08-0.37,0.16-0.55,0.24c0.27,0.69,0.52,1.38,0.81,2.06
		c1.73,4.13,3.44,8.27,5.22,12.38C282.67,254.84,283.27,254.99,283.66,255.24z"/>
	<path class="st0" d="M304.68,293.52c-1.91-1.83-2.97-4.75-6.01-5.13c-2.98-0.37-5.49,0.44-7.32,2.93
		c-2.18,2.97-2.04,8.23,0.33,11.49c1.92,2.63,4.45,3.73,7.74,3.14c3.13-0.56,4.31-3.43,6.41-5.3c-0.2,2.39-1.4,4.11-3.16,5.41
		c-3.37,2.49-8.8,2.58-12.43,0.28c-3.4-2.15-5.18-6.37-4.47-10.6c0.7-4.19,4.06-7.91,8.43-8.5c2.81-0.38,5.75,0.13,8.63,0.29
		c0.29,0.02,0.71,0.37,0.81,0.65c0.57,1.61,1.07,3.25,1.59,4.89C305.04,293.22,304.86,293.37,304.68,293.52z M289.3,303.54
		c-0.47-1.36-1.08-2.7-1.38-4.1c-0.3-1.39-0.29-2.85-0.42-4.28C286.51,298.31,287.19,301.11,289.3,303.54z"/>
	<path class="st0" d="M314.68,249.68c-0.28,3.96-3.67,6.83-7.85,7.3c-6.69,0.76-11.79-3.36-12.23-9.87
		c-0.39-5.8,4.49-10.92,10.73-11.05c2.17-0.04,4.36,0.3,6.53,0.53c0.3,0.03,0.72,0.36,0.82,0.65c0.56,1.62,1.03,3.26,1.54,4.9
		c-0.15,0.12-0.3,0.23-0.45,0.35c-0.43-0.4-0.95-0.73-1.28-1.2c-2.52-3.58-5.11-4.69-8.46-3.58c-3.27,1.09-5.48,4.29-5.13,8.2
		c0.18,2.04,0.74,4.29,1.86,5.96c3.28,4.86,9.54,4.39,12.55-0.69C313.65,250.61,314.22,250.18,314.68,249.68z M296.4,243.84
		c-0.73,2.64-0.54,5.23,1.07,7.98C297.08,248.93,296.74,246.38,296.4,243.84z"/>
	<path class="st0" d="M222.82,256.47c-3.54,0-7.08,0-11.21,0c0.69-0.6,1-1.06,1.39-1.16c1.85-0.46,2.37-1.67,2.34-3.45
		c-0.07-3.67,0.07-7.34-0.07-11.01c-0.04-1.01-0.65-2.74-1.21-2.82c-1.15-0.18-2.55,0.33-3.63,0.93c-0.69,0.38-0.99,1.44-1.48,2.19
		c-0.3,0.46-0.64,0.9-0.96,1.34c-0.2-0.07-0.41-0.14-0.61-0.2c0.12-1.74,0.19-3.5,0.41-5.23c0.03-0.27,0.74-0.65,1.14-0.66
		c5.67-0.05,11.33-0.06,17,0.01c0.42,0,1.13,0.62,1.19,1.03c0.26,1.57,0.31,3.17,0.44,4.77c-0.16,0.1-0.32,0.2-0.48,0.3
		c-0.36-0.43-0.7-0.88-1.08-1.3c-1.01-1.11-1.85-2.53-3.09-3.24c-1.73-0.99-3.36,0.17-3.39,2.2c-0.06,4.06-0.01,8.11-0.03,12.17
		c-0.01,1.5,0.67,2.4,2.08,2.87c0.51,0.17,0.95,0.53,1.43,0.81C222.94,256.16,222.88,256.31,222.82,256.47z M216.6,237.69
		c0,6.03,0,11.82,0,17.61c0.19,0.04,0.38,0.09,0.57,0.13c0.11-0.4,0.31-0.81,0.32-1.21c0.02-5.49,0.01-10.98,0.01-16.53
		C217.28,237.69,216.93,237.69,216.6,237.69z"/>
	<path class="st0" d="M131.94,293.45c-0.43-0.45-0.95-0.84-1.28-1.35c-2.11-3.25-4.47-4.37-7.76-3.62
		c-3.11,0.71-5.64,3.49-5.71,6.94c-0.04,2.05,0.37,4.24,1.12,6.15c1.08,2.76,3.35,4.35,6.41,4.53c3.12,0.19,5.21-1.43,6.82-3.93
		c0.39-0.61,1-1.09,1.68-1.45c-1.3,5.48-6.15,8.11-12.31,7c-4.91-0.89-8.47-5.78-8-10.98c0.5-5.56,4.99-9.75,10.77-9.85
		c2.11-0.04,4.22,0.36,6.33,0.61c0.31,0.04,0.74,0.34,0.85,0.62c0.6,1.61,1.11,3.25,1.66,4.87
		C132.33,293.15,132.13,293.3,131.94,293.45z M116.34,303.47c-0.56-2.46-1.22-5.33-1.77-7.72
		C113.61,297.86,114.39,301.39,116.34,303.47z"/>
	<path class="st0" d="M323.33,236.55c3.13,0,6.27,0,9.58,0c-0.18,0.46-0.23,0.85-0.36,0.88c-2.37,0.59-2.52,2.33-2.46,4.35
		c0.09,3.28,0.06,6.57,0.01,9.85c-0.03,1.73,0.18,3.22,2.19,3.77c0.25,0.07,0.39,0.52,0.77,1.06c-3.46,0-6.6,0-10.31,0
		c0.7-0.62,1-1.08,1.42-1.24c1.29-0.48,1.74-1.43,1.74-2.71c0-4.06,0.09-8.12-0.08-12.17c-0.04-0.87-0.98-1.73-1.6-2.53
		c-0.26-0.34-0.74-0.5-1.12-0.75C323.18,236.9,323.25,236.72,323.33,236.55z M327.6,255.39c0.18-0.06,0.37-0.13,0.55-0.19
		c0-5.82,0-11.65,0-17.57c-0.36,0.02-0.77,0.05-1.17,0.07c0.11,0.77,0.27,1.4,0.27,2.03c-0.01,4.83-0.06,9.66-0.06,14.5
		C327.2,254.61,327.46,255,327.6,255.39z"/>
	<path class="st0" d="M126.53,256.52c-3.18,0-6.3,0-10.04,0c0.78-0.69,1.23-0.98,1.55-1.39c0.58-0.75,1.52-1.55,1.55-2.36
		c0.16-4.24,0.14-8.5,0.01-12.74c-0.02-0.72-0.8-1.47-1.36-2.09c-0.33-0.37-0.9-0.53-1.36-0.78c0.04-0.18,0.08-0.36,0.13-0.53
		c3.16,0,6.31,0,9.62,0c-0.15,0.36-0.22,0.82-0.39,0.86c-2.31,0.58-2.41,2.29-2.37,4.22c0.08,3.28,0.07,6.57,0,9.85
		c-0.04,1.82,0.19,3.36,2.29,3.88c0.15,0.04,0.27,0.25,0.36,0.41C126.57,255.95,126.53,256.1,126.53,256.52z M121.47,255.44
		c0.15-0.08,0.31-0.17,0.46-0.25c0-5.82,0-11.63,0-17.55c-0.35,0.02-0.75,0.04-1.15,0.07c0.1,0.84,0.25,1.53,0.25,2.23
		c-0.01,4.82-0.07,9.63-0.06,14.45C120.97,254.73,121.29,255.08,121.47,255.44z"/>
	<path class="st0" d="M166.49,236.52c3.67,0,6.81,0,10.21,0c-0.28,0.5-0.37,0.92-0.56,0.97c-2.17,0.58-2.38,2.17-2.33,4.06
		c0.08,3.41,0.06,6.82,0.01,10.24c-0.02,1.68,0.26,3.08,2.15,3.61c0.26,0.07,0.43,0.51,0.86,1.05c-3.48,0-6.63,0-10.22,0
		c0.48-0.55,0.7-1.05,1.03-1.14c1.62-0.48,1.97-1.65,1.96-3.13c-0.02-3.73-0.04-7.47,0.02-11.2c0.03-1.66-0.37-2.91-2.16-3.38
		C167.23,237.54,167.07,237.18,166.49,236.52z M170.83,255.11c0.21,0.11,0.41,0.22,0.62,0.33c0.13-0.39,0.38-0.79,0.38-1.18
		c0-4.83-0.05-9.66-0.06-14.48c0-0.69,0.15-1.37,0.24-2.16c-0.49,0.03-0.91,0.05-1.17,0.06
		C170.83,243.58,170.83,249.34,170.83,255.11z"/>
	<path class="st0" d="M314.63,287.22c2.93,0,5.86-0.01,8.78,0.02c0.23,0,0.67,0.42,0.63,0.52c-0.11,0.31-0.35,0.75-0.61,0.81
		c-1.87,0.46-2.1,1.84-2.09,3.43c0.02,3.54,0.02,7.08,0,10.62c-0.01,1.64,0.16,3.11,2.12,3.6c0.26,0.07,0.42,0.53,0.63,0.81
		c-0.34,0.21-0.67,0.58-1.01,0.59c-2.51,0.05-5.02,0.05-7.53,0c-0.34-0.01-0.67-0.39-1-0.6c0.28-0.3,0.5-0.76,0.84-0.87
		c1.45-0.44,1.79-1.51,1.8-2.84c0.01-3.93,0.02-7.85,0.03-11.78c0-1.39-0.34-2.53-1.92-2.94c-0.35-0.09-0.6-0.59-0.9-0.9
		C314.47,287.55,314.55,287.39,314.63,287.22z M318.9,288.4c-0.12,0.11-0.24,0.22-0.36,0.34c0,5.8,0,11.59,0,17.39
		c0.16,0.05,0.32,0.09,0.47,0.14c0.12-0.33,0.36-0.66,0.36-0.99c0.04-5.32,0.06-10.64,0.05-15.97
		C319.42,289,319.08,288.7,318.9,288.4z"/>
	<path class="st0" d="M351.28,234.97c0.34-4.19,1.01-4.79,4.47-4.03C354.36,233.36,352.69,234.86,351.28,234.97z"/>
	<path class="st0" d="M184.71,52.33c0,2.71,0.04,4.76-0.01,6.81c-0.3,14.95-0.64,29.9-0.9,44.85c-0.02,1.44-0.48,2.17-1.8,2.74
		c-5.44,2.36-10.81,4.87-16.24,7.23c-1.5,0.65-2.15,1.47-2.03,3.19c0.38,5.53,0.54,11.07,0.9,16.6c0.09,1.48-0.26,2.21-1.79,2.55
		c-3.58,0.82-7.13,1.77-10.66,2.76c-1.42,0.4-1.92,0.05-2.11-1.44c-1.75-14.19-3.57-28.38-5.37-42.57c-0.01-0.06,0-0.13-0.02-0.19
		c-1.89-5.05,0.48-8.09,4.31-11.3c11.15-9.35,21.93-19.14,32.85-28.76C182.64,54.09,183.46,53.41,184.71,52.33z"/>
</g>
</svg>
